<svg width="246" height="66" viewBox="0 0 246 66" fill="none" xmlns="http://www.w3.org/2000/svg">
<path d="M219.243 33.227C208.332 34.4495 200.712 40.3066 187.577 41.5399C182.023 42.0452 178.481 41.9131 175.004 41.8178C170.406 41.6771 166.076 41.5891 157.694 43.2723C143.152 46.1954 128.223 47.3869 121.949 49.7149C116.864 51.6043 115.019 50.0633 109.697 50.8377C108.685 50.9715 107.527 51.314 106.242 52.0528C103.306 53.7471 101.17 55.8073 98.2204 57.8352C98.152 57.8504 97.9317 58.0348 97.7863 58.2489C97.7121 58.3503 97.6568 58.457 97.6257 58.4715C97.5808 58.4776 97.6282 58.4128 97.4273 57.8918L95.9805 56.0008C96.5113 56.6747 98.6449 57.4145 101.044 57.8847C103.969 58.508 109.631 58.812 115.971 58.7016L115.893 58.7072C125.981 58.163 137.697 56.8629 143.245 55.482C152.263 53.2262 162.967 54.1512 169.309 53.932C171.287 53.8633 172.852 53.901 174.059 53.9888C174.571 54.0261 174.825 54.1984 174.848 54.3948C174.848 54.3949 174.848 54.3951 174.848 54.3952C174.876 54.6398 174.545 54.9218 173.905 55.027C170.8 55.5377 166.18 56.4732 160.767 57.9943C150.669 60.8244 149.349 59.14 135.536 61.5248C128.323 62.7591 122.633 64.0467 116.456 64.9988C116.425 65.0006 116.332 65.0093 116.301 65.0099C110.462 65.4961 104.852 66.5652 95.5927 64.3986C94.2691 63.9945 92.8086 63.4092 91.5045 62.4688C91.0361 62.1213 90.1906 61.0764 90.0139 60.5205C89.204 57.4828 90.0163 56.1423 90.5994 54.6811C91.2745 53.2941 92.2063 52.0904 93.4966 51.1201C97.1812 48.1104 100.77 43.6519 107.689 41.6592C112.496 40.2198 118.402 38.9201 127.279 38.1951C149.884 36.4936 152.058 31.5818 173.064 27.6533C173.791 27.5231 174.533 27.395 175.29 27.2691C186.662 25.3646 199.619 24.0987 211.174 22.5007C216.895 21.6976 222.327 20.7895 226.599 19.5218C228.718 18.8952 230.51 18.154 231.578 17.4653C232.106 17.1318 232.413 16.8399 232.524 16.7021C232.637 16.5572 232.587 16.6074 232.577 16.617C232.574 16.6184 232.571 16.6167 232.568 16.608C232.468 17.7582 232.678 18.0926 232.751 18.3437C232.844 18.5759 232.904 18.6612 232.958 18.7409C233.058 18.8817 233.193 19.0129 233.46 19.1158C223.717 15.1091 218.506 12.9608 209 13.0663C203.229 13.1147 196.965 13.3408 190.675 13.5377C175.275 14.0523 157.073 16.773 140.06 20.0283C135.446 20.9201 130.867 21.7885 126.373 22.5585C110.68 25.2188 90.2364 29.5337 75.1127 33.1135C69.6178 34.4141 64.8029 35.514 61.1003 36.3098C47.1047 39.2858 43.7037 39.9847 30.5486 43.9782C22.9706 46.2628 12.3448 48.5113 3.10793 49.4011C-1.52319 49.8444 -0.696852 48.7553 3.72348 47.2855C10.1722 45.1375 15.7062 44.2176 18.8315 42.3276C25.0956 38.5377 27.7535 37.0221 36.5729 36.0316C45.4106 35.0145 48.6347 31.1104 53.6502 30.0471C57.7959 29.15 58.778 30.1695 72.9185 25.6732C75.9254 24.7152 79.5192 23.5376 83.877 22.0879C108.902 13.8211 123.01 10.4296 132.739 8.01853C134.097 7.68703 135.673 7.34992 137.421 7.01127C148.419 4.80917 165.916 3.52619 179.894 1.93039C187.206 1.08124 197.873 0.256454 208.91 0.0752506C219.501 -0.707515 232.863 4.83295 237.154 6.67068C239.638 7.37847 241.616 8.79467 243.054 10.4904C244.417 12.2953 245.79 13.979 245.614 18.0578C245.582 18.4568 245.531 18.8505 245.465 19.236C243.668 26.8208 239.101 28.4899 236.972 29.8334C234.562 31.0465 232.73 31.5121 231.063 31.8478C227.66 32.4925 224.745 32.5518 219.243 33.227Z" fill="#FF7700"/>
</svg>
